<svg width="36" height="49" viewBox="0 0 36 49" fill="none" xmlns="http://www.w3.org/2000/svg">
<path d="M0 31V0H36V31L19.125 49L0 31Z" fill="#E82525"/>
<path d="M10.9384 11.832V13.64H7.96238V23H5.72238V13.64H2.74638V11.832H10.9384ZM17.7568 23.112C16.7114 23.112 15.7514 22.8667 14.8768 22.376C14.0021 21.8853 13.3088 21.208 12.7968 20.344C12.2848 19.4693 12.0288 18.4827 12.0288 17.384C12.0288 16.296 12.2848 15.32 12.7968 14.456C13.3088 13.5813 14.0021 12.8987 14.8768 12.408C15.7514 11.9173 16.7114 11.672 17.7568 11.672C18.8128 11.672 19.7728 11.9173 20.6368 12.408C21.5114 12.8987 22.1994 13.5813 22.7008 14.456C23.2128 15.32 23.4688 16.296 23.4688 17.384C23.4688 18.4827 23.2128 19.4693 22.7008 20.344C22.1994 21.208 21.5114 21.8853 20.6368 22.376C19.7621 22.8667 18.8021 23.112 17.7568 23.112ZM17.7568 21.112C18.4288 21.112 19.0208 20.9627 19.5328 20.664C20.0448 20.3547 20.4448 19.9173 20.7328 19.352C21.0208 18.7867 21.1648 18.1307 21.1648 17.384C21.1648 16.6373 21.0208 15.9867 20.7328 15.432C20.4448 14.8667 20.0448 14.4347 19.5328 14.136C19.0208 13.8373 18.4288 13.688 17.7568 13.688C17.0848 13.688 16.4874 13.8373 15.9648 14.136C15.4528 14.4347 15.0528 14.8667 14.7648 15.432C14.4768 15.9867 14.3328 16.6373 14.3328 17.384C14.3328 18.1307 14.4768 18.7867 14.7648 19.352C15.0528 19.9173 15.4528 20.3547 15.9648 20.664C16.4874 20.9627 17.0848 21.112 17.7568 21.112ZM33.2793 15.288C33.2793 15.8853 33.1353 16.4453 32.8472 16.968C32.5699 17.4907 32.1273 17.912 31.5193 18.232C30.9219 18.552 30.1646 18.712 29.2473 18.712H27.3753V23H25.1353V11.832H29.2473C30.1113 11.832 30.8473 11.9813 31.4553 12.28C32.0633 12.5787 32.5166 12.9893 32.8153 13.512C33.1246 14.0347 33.2793 14.6267 33.2793 15.288ZM29.1513 16.904C29.7699 16.904 30.2286 16.7653 30.5273 16.488C30.8259 16.2 30.9753 15.8 30.9753 15.288C30.9753 14.2 30.3673 13.656 29.1513 13.656H27.3753V16.904H29.1513Z" fill="white"/>
</svg>
